<?xml version="1.0" standalone="no"?>
<!DOCTYPE svg PUBLIC "-//W3C//DTD SVG 20010904//EN"
 "http://www.w3.org/TR/2001/REC-SVG-20010904/DTD/svg10.dtd">
<svg version="1.0" xmlns="http://www.w3.org/2000/svg"
 width="512.000000pt" height="512.000000pt" viewBox="0 0 512.000000 512.000000"
 preserveAspectRatio="xMidYMid meet">

<g transform="translate(0.000000,512.000000) scale(0.100000,-0.100000)"
fill="#000000" stroke="none">
<path d="M1245 5105 c-110 -55 -160 -207 -171 -515 l-6 -175 -58 -100 c-130
-226 -238 -470 -275 -622 -10 -42 -23 -73 -30 -73 -7 0 -36 4 -64 10 -78 15
-121 -12 -121 -74 0 -38 40 -65 116 -79 l69 -12 6 -45 c3 -25 9 -65 13 -90 l8
-46 -53 -24 c-105 -49 -135 -105 -84 -155 32 -33 58 -31 133 9 l63 34 19 -36
c51 -98 175 -216 270 -258 22 -10 40 -24 40 -31 0 -8 -20 -85 -45 -171 -53
-185 -55 -213 -19 -241 30 -24 43 -26 78 -10 31 14 32 17 106 276 70 243 70
251 -9 279 -97 35 -149 66 -204 121 -101 102 -167 267 -167 418 0 166 110 452
294 763 l63 107 7 185 c7 229 30 355 73 402 14 16 18 16 44 2 58 -29 172 -206
250 -387 24 -56 42 -83 61 -93 22 -11 100 -14 416 -14 376 0 390 1 415 20 14
11 29 31 33 43 13 44 123 256 162 314 40 59 113 133 132 133 18 0 49 -63 66
-135 12 -48 18 -132 22 -265 l4 -195 70 -117 c148 -251 264 -526 289 -687 27
-178 -46 -391 -177 -511 -46 -42 -154 -100 -187 -100 -25 0 -67 -45 -67 -71 0
-12 24 -105 54 -208 184 -629 343 -1283 390 -1602 22 -148 21 -301 -2 -377
-50 -158 -178 -254 -427 -317 -49 -13 -91 -22 -92 -22 0 1 9 52 22 114 64 308
128 916 151 1429 l7 150 -28 22 c-36 28 -70 28 -99 -1 -21 -21 -24 -36 -30
-158 -30 -576 -82 -1074 -146 -1390 -42 -207 -99 -369 -130 -369 -15 0 -48 71
-74 162 -66 230 -112 686 -132 1327 -7 207 -8 216 -30 238 -30 30 -69 29 -101
-3 l-26 -26 7 -242 c14 -516 52 -948 105 -1208 l18 -88 -204 0 -205 0 5 23
c55 218 100 692 117 1212 9 304 8 317 -42 345 -25 13 -31 13 -55 0 -46 -26
-53 -52 -53 -215 -1 -305 -33 -797 -71 -1060 -34 -243 -99 -465 -134 -465 -30
0 -84 151 -124 345 -64 309 -115 765 -141 1275 -6 118 -14 230 -16 248 -12 78
-104 100 -139 33 -9 -19 -12 -50 -9 -102 44 -739 92 -1194 155 -1484 10 -49
19 -93 19 -98 0 -24 -191 28 -294 80 -162 81 -246 220 -246 404 0 152 74 542
190 1005 70 278 78 320 67 343 -26 55 -109 53 -132 -3 -23 -55 -162 -626 -205
-840 -70 -354 -83 -512 -54 -653 54 -262 248 -414 629 -494 55 -11 100 -21
101 -22 1 -1 13 -25 28 -54 89 -177 234 -191 326 -30 l29 51 255 1 255 0 15
-31 c36 -76 110 -134 171 -134 65 0 138 67 178 162 10 24 24 39 39 42 13 3 50
10 83 17 243 45 508 148 743 288 546 323 887 800 1001 1401 34 182 44 337 38
595 -8 302 -21 422 -49 453 -29 30 -78 29 -108 -3 -23 -24 -23 -25 -11 -142
20 -190 25 -493 12 -643 -51 -584 -309 -1060 -754 -1394 -91 -68 -267 -179
-273 -173 -2 2 4 23 12 47 9 25 21 90 27 146 l10 100 41 29 c62 45 181 161
237 231 67 85 66 142 -4 167 -32 12 -62 -10 -135 -96 -40 -47 -92 -101 -117
-121 -44 -36 -44 -36 -49 -14 -2 13 -18 100 -36 193 -39 215 -94 451 -176 770
-57 219 -198 726 -211 761 -2 7 21 26 59 46 79 42 188 143 235 220 20 32 40
58 46 58 6 0 34 -13 64 -30 76 -43 120 -37 141 21 17 45 -4 75 -82 118 l-72
40 14 89 15 89 72 12 c82 13 108 34 108 82 0 46 -33 74 -85 70 -119 -9 -108
-14 -128 64 -42 161 -155 416 -275 620 l-54 93 -6 148 c-8 253 -35 385 -95
476 -35 53 -96 88 -151 88 -114 -1 -245 -141 -370 -397 l-50 -103 -327 0 -327
0 -52 108 c-147 302 -309 442 -438 377z"/>
<path d="M1375 3936 c-61 -27 -95 -93 -95 -182 0 -67 20 -113 66 -154 29 -25
43 -30 84 -30 41 0 55 5 86 32 47 42 66 87 65 160 0 66 -28 128 -72 160 -34
25 -96 32 -134 14z"/>
<path d="M2629 3927 c-71 -48 -103 -138 -80 -226 23 -85 75 -131 149 -131 134
0 202 206 105 321 -52 61 -116 75 -174 36z"/>
<path d="M3933 3756 c-103 -34 -180 -103 -225 -202 -18 -39 -22 -66 -22 -134
1 -100 18 -155 124 -405 77 -182 128 -329 156 -450 29 -121 26 -381 -4 -535
-27 -131 -79 -300 -128 -412 -19 -42 -34 -89 -34 -105 0 -56 69 -92 113 -59
45 34 149 319 194 531 24 115 27 152 27 325 1 276 -21 369 -188 772 -100 239
-123 324 -106 387 21 78 110 151 185 151 119 0 238 -142 310 -370 15 -47 36
-93 47 -102 27 -24 73 -23 98 2 28 28 25 73 -11 177 -97 277 -245 430 -426
439 -41 2 -85 -2 -110 -10z"/>
<path d="M1937 3696 c-85 -24 -121 -79 -97 -150 13 -40 67 -92 117 -112 l33
-14 0 -100 c0 -87 3 -103 20 -120 30 -30 83 -27 109 6 18 23 21 41 21 120 l0
93 52 28 c65 35 98 81 98 137 0 85 -52 116 -205 122 -65 3 -117 -1 -148 -10z"/>
</g>
</svg>
